<?xml version="1.0" standalone="no"?>
<!DOCTYPE svg PUBLIC "-//W3C//DTD SVG 20010904//EN"
 "http://www.w3.org/TR/2001/REC-SVG-20010904/DTD/svg10.dtd">
<svg version="1.0" xmlns="http://www.w3.org/2000/svg"
 width="687.000000pt" height="687.000000pt" viewBox="0 0 687.000000 687.000000"
 preserveAspectRatio="xMidYMid meet">
<metadata>
Created by potrace 1.14, written by Peter Selinger 2001-2017
</metadata>
<g transform="translate(0.000000,687.000000) scale(0.100000,-0.100000)"
fill="#000000" stroke="none">
<path d="M5450 6150 c-42 -42 -12 -87 81 -120 73 -26 155 -61 207 -88 l44 -23
-126 -122 c-134 -129 -145 -148 -106 -187 37 -37 57 -26 196 111 l132 131 55
-55 c30 -30 75 -84 99 -118 46 -65 124 -207 117 -213 -2 -1 -25 -17 -51 -34
-49 -34 -64 -59 -53 -93 12 -37 52 -43 103 -14 52 29 57 26 66 -44 12 -87 17
-98 43 -110 23 -10 31 -9 52 7 33 24 36 51 16 143 -9 41 -19 83 -21 94 -3 15
12 32 61 68 35 26 69 47 74 47 6 0 18 11 26 24 31 48 -16 98 -77 82 -13 -3
-48 -26 -78 -51 -30 -24 -58 -41 -62 -37 -4 4 -21 34 -39 67 -44 85 -113 180
-181 251 -32 33 -58 64 -58 67 0 4 18 18 40 32 46 29 55 44 46 80 -11 42 -51
50 -100 21 -22 -13 -51 -34 -63 -45 l-22 -21 -62 36 c-65 36 -302 134 -325
134 -8 0 -23 -9 -34 -20z"/>
<path d="M1212 6114 c-34 -24 -27 -59 34 -167 31 -54 54 -100 52 -101 -1 -2
-30 -18 -63 -37 -33 -18 -96 -61 -140 -94 -78 -60 -81 -61 -107 -46 -42 24
-82 6 -86 -40 -2 -23 2 -40 12 -48 13 -11 8 -22 -41 -84 -31 -40 -71 -88 -89
-107 -46 -51 -51 -74 -19 -105 42 -43 73 -25 160 90 29 39 62 78 72 88 19 16
21 15 64 -28 33 -34 52 -45 74 -45 71 0 75 59 10 129 l-45 48 28 25 c49 44
205 148 224 148 6 0 61 -125 95 -215 29 -74 90 -94 115 -39 13 29 3 70 -53
201 -21 51 -39 94 -39 97 0 9 126 45 198 57 73 12 102 30 102 64 0 33 -31 55
-77 55 -23 0 -96 -14 -163 -31 -66 -17 -123 -30 -124 -28 -2 2 -27 47 -56 99
-69 128 -92 146 -138 114z"/>
<path d="M3525 5694 c-350 -33 -590 -93 -865 -218 -224 -102 -473 -285 -561
-412 -19 -28 -39 -45 -58 -49 -57 -12 -139 -83 -151 -130 -4 -12 -37 -37 -89
-65 -184 -98 -375 -341 -457 -582 -30 -89 -54 -230 -54 -321 0 -85 25 -244 51
-316 10 -30 19 -57 19 -58 0 -2 -306 -3 -680 -3 l-680 0 0 -1235 0 -1235 250
0 250 0 0 -30 0 -30 -250 0 -250 0 0 -70 0 -70 250 0 c160 0 250 -4 250 -10 0
-6 -90 -10 -250 -10 l-250 0 0 -70 0 -70 82 0 83 0 -83 -55 -82 -55 0 -245 0
-245 670 0 669 0 124 93 c69 50 171 125 227 166 56 41 108 84 116 96 11 17 12
44 6 133 l-7 112 379 0 379 0 111 104 c61 58 220 212 354 343 l243 238 -1 113
c0 112 0 114 -29 143 l-29 29 -272 0 -271 0 3 32 3 33 457 3 458 2 -29 -47
c-64 -105 -91 -249 -61 -325 53 -130 193 -193 435 -193 176 0 268 26 450 129
131 74 315 287 315 364 0 15 15 28 54 46 l55 26 1030 0 1031 0 0 70 0 70 -195
0 c-107 0 -195 2 -195 6 0 3 20 105 44 227 69 343 89 498 89 677 0 132 -4 172
-25 265 -52 218 -136 387 -279 558 -93 111 -129 164 -129 189 0 19 -80 294
-114 393 -145 420 -267 665 -415 842 -89 106 -214 188 -366 240 -70 24 -282
66 -390 79 -89 10 -86 9 -158 53 -211 129 -460 219 -712 256 -97 15 -418 27
-500 19z m475 -158 c425 -72 747 -241 1060 -555 87 -87 206 -238 196 -249 -14
-13 -52 20 -124 112 -105 132 -233 254 -347 332 -293 200 -508 293 -758 330
-142 21 -548 15 -697 -11 -408 -70 -751 -213 -1003 -419 -85 -69 -81 -49 5 25
265 228 652 387 1073 438 50 6 106 13 125 15 70 8 387 -4 470 -18z m-68 -201
c303 -42 604 -172 844 -366 88 -72 214 -216 214 -246 0 -6 -19 -16 -42 -23
-138 -41 -293 -158 -406 -306 -129 -169 -212 -440 -199 -648 11 -158 82 -330
179 -432 l29 -31 -48 -20 c-123 -52 -341 -96 -510 -104 -47 -3 -53 0 -79 30
-35 42 -69 56 -191 81 -115 24 -157 25 -214 5 -86 -31 -140 -117 -125 -198 9
-47 57 -111 108 -144 40 -26 50 -28 153 -28 101 0 114 2 164 28 29 16 72 47
95 71 l41 42 175 22 c190 23 334 57 446 104 l72 30 48 -35 c61 -43 149 -88
234 -120 67 -26 74 -28 149 -47 l45 -12 -49 -44 c-28 -24 -59 -44 -70 -44
-154 -3 -502 -48 -610 -79 -16 -5 -66 -17 -110 -26 -185 -40 -346 -86 -435
-125 -283 -123 -404 -159 -570 -167 -102 -5 -127 -2 -229 22 -105 25 -244 76
-333 121 l-38 19 0 302 c0 185 -4 312 -10 329 -13 32 -204 221 -238 235 -13 5
-160 9 -327 9 l-305 0 -6 25 c-4 14 -4 65 -2 113 9 160 80 321 184 415 129
118 120 104 127 193 10 137 34 233 82 329 54 108 156 241 219 284 24 17 47 39
51 50 6 20 57 63 120 103 219 137 534 248 805 282 148 19 425 19 562 1z
m-1875 -605 c10 0 10 -6 1 -25 -9 -21 -18 -25 -55 -25 -95 0 -224 -98 -349
-265 -66 -87 -102 -156 -130 -250 -15 -48 -19 -93 -19 -220 0 -170 10 -226 62
-344 12 -29 23 -55 23 -57 0 -2 -17 -4 -39 -4 -36 0 -39 3 -54 43 -126 330
-63 660 183 956 101 121 261 212 345 195 11 -2 26 -4 32 -4z m2754 -287 c-136
-137 -218 -298 -252 -497 -33 -196 38 -449 168 -603 66 -78 39 -67 -49 19 -78
77 -112 122 -142 191 -42 96 -49 139 -44 274 4 110 9 141 36 220 43 127 81
198 152 286 52 66 172 176 192 177 3 0 -24 -30 -61 -67z m630 -268 c45 -23
102 -85 131 -143 20 -41 23 -62 23 -167 0 -104 -3 -127 -23 -170 -98 -213
-353 -204 -456 15 -27 58 -30 75 -30 160 0 83 3 102 28 152 37 75 91 136 140
160 49 23 134 20 187 -7z m-1751 -1041 c48 -8 92 -19 99 -24 38 -23 -58 -69
-146 -70 -52 0 -66 4 -92 26 -37 31 -39 47 -9 68 28 20 42 20 148 0z m573
-506 c-441 -317 -698 -409 -1106 -395 -178 6 -266 22 -397 70 l-85 32 -3 83
c-2 45 0 82 2 82 3 0 43 -15 88 -34 180 -74 325 -106 478 -106 192 0 330 38
670 185 73 31 325 103 369 104 8 1 1 -9 -16 -21z m347 -174 c135 -102 239
-279 265 -449 5 -39 4 -41 -37 -66 -91 -56 -84 -59 -101 37 -19 105 -61 196
-127 279 -46 57 -121 128 -179 167 l-23 16 53 31 c30 17 61 31 71 31 9 0 44
-21 78 -46z m-266 -148 c74 -53 179 -162 205 -214 37 -75 52 -138 49 -212 l-3
-73 -80 -32 c-157 -62 -337 -76 -450 -34 -174 65 -214 234 -88 375 51 56 273
231 297 233 5 1 36 -19 70 -43z m-1522 -173 c46 -45 62 -83 36 -83 -7 0 -29
17 -50 37 -21 20 -39 35 -42 32 -2 -2 -7 -19 -11 -36 -6 -30 -4 -33 17 -33 13
-1 39 -9 58 -18 34 -17 35 -19 35 -72 l0 -55 -47 -9 c-38 -7 -52 -6 -73 8 -40
26 -26 42 34 37 52 -3 53 -2 46 20 -11 36 -21 43 -65 44 -58 1 -64 12 -49 81
24 111 39 118 111 47z m571 39 c3 -4 1 -31 -5 -61 -5 -29 -7 -55 -5 -58 3 -2
20 16 39 41 18 25 39 45 46 46 26 0 23 -31 -7 -69 -26 -32 -30 -43 -21 -58 6
-10 16 -35 23 -55 16 -49 29 -51 42 -6 14 49 28 63 44 44 10 -12 10 -24 -1
-58 -14 -41 -16 -43 -60 -46 -45 -3 -46 -2 -62 38 -9 22 -19 40 -24 40 -17 0
-32 -25 -32 -52 0 -22 -5 -28 -22 -28 -21 0 -23 4 -20 54 3 49 2 54 -20 59
-49 14 -51 11 -44 -53 7 -59 7 -60 -19 -60 -23 0 -25 4 -25 44 0 24 -3 64 -6
89 -6 39 -4 48 11 53 11 5 21 1 27 -9 6 -11 22 -17 48 -17 l40 0 0 46 c0 25 5
54 10 65 11 19 35 26 43 11z m-451 -54 l3 -52 40 0 40 -1 10 -60 c13 -72 20
-64 30 33 5 49 12 75 21 79 30 11 71 -47 109 -156 21 -60 19 -71 -10 -71 -19
0 -25 5 -25 22 l0 21 -23 -21 c-18 -17 -36 -22 -79 -22 l-56 0 -7 65 c-10 93
-29 88 -43 -11 -6 -40 -11 -49 -27 -49 -19 0 -20 8 -23 124 -3 135 0 151 22
151 11 0 16 -14 18 -52z m892 -387 c17 -18 16 -19 -33 -22 -56 -4 -63 2 -29
25 29 21 41 20 62 -3z m658 -138 c-36 -50 -94 -99 -99 -85 -3 8 -19 26 -35 40
l-30 27 84 21 c45 12 87 22 91 23 5 0 -1 -11 -11 -26z m-669 -45 c-4 -13 -8
-65 -8 -116 0 -106 1 -105 -89 -71 -73 27 -100 60 -93 117 3 26 12 49 23 57
23 17 85 32 137 34 36 1 38 -1 30 -21z m285 -23 c89 -28 141 -60 153 -92 7
-20 1 -24 -67 -53 -66 -27 -221 -66 -230 -57 -11 11 -15 148 -5 185 10 37 15
42 41 42 16 0 64 -11 108 -25z m-1193 -72 c-44 -42 -114 -110 -156 -150 -42
-40 -79 -73 -83 -73 -3 0 -6 68 -6 150 l0 150 163 0 162 0 -80 -77z m175 -37
c0 -2 -8 -10 -17 -17 -16 -13 -17 -12 -4 4 13 16 21 21 21 13z m-40 -39 c0 -2
-10 -12 -22 -23 l-23 -19 19 23 c18 21 26 27 26 19z m-61 -54 c-15 -19 -290
-287 -381 -372 -32 -30 -58 -49 -58 -44 0 6 84 89 188 186 103 96 203 191 221
211 36 38 53 48 30 19z m-459 -227 c0 -3 -17 -21 -37 -40 l-38 -36 -602 0
-603 0 0 25 0 25 604 0 c507 0 609 2 637 15 39 16 39 16 39 11z m-112 -233 c3
-10 -118 -13 -582 -13 -516 0 -586 2 -586 15 0 13 69 15 582 13 454 -2 582 -6
586 -15z"/>
<path d="M3821 4470 c-64 -54 -76 -83 -45 -114 27 -28 60 -18 123 35 47 39 61
57 61 78 0 68 -58 69 -139 1z"/>
<path d="M2447 4462 c-10 -10 -17 -26 -17 -36 0 -17 74 -95 116 -122 43 -29
98 21 74 66 -5 9 -31 37 -59 63 -54 51 -87 59 -114 29z"/>
<path d="M4020 4228 c-33 -17 -67 -87 -76 -155 -16 -129 61 -222 147 -177 81
41 96 251 23 316 -27 24 -65 30 -94 16z"/>
<path d="M2283 4165 c-43 -18 -63 -69 -63 -155 0 -76 26 -128 71 -144 115 -40
189 242 78 299 -34 18 -45 18 -86 0z"/>
<path d="M2975 4083 c-223 -13 -335 -26 -348 -42 -8 -9 -29 -52 -47 -96 -27
-66 -34 -97 -38 -177 -4 -96 -4 -99 32 -174 110 -232 430 -382 728 -344 238
31 396 136 488 325 50 102 64 169 57 265 -11 131 -32 171 -103 189 -86 22
-579 64 -684 59 -19 -1 -57 -3 -85 -5z m250 -123 l30 -7 -35 -16 c-19 -8 -37
-14 -40 -13 -30 12 -60 31 -60 38 0 10 62 9 105 -2z m-385 -20 c-30 -23 -53
-25 -69 -6 -10 12 -7 15 21 19 74 9 75 8 48 -13z m759 -9 l24 -7 -27 -18 c-15
-9 -42 -20 -60 -23 -27 -4 -36 -1 -50 18 -9 13 -16 27 -16 31 0 10 95 9 129
-1z m-527 -84 c76 -58 173 -54 244 7 l38 33 30 -45 c43 -64 86 -85 159 -79 47
4 70 13 115 44 31 21 61 40 66 42 5 2 7 -27 4 -67 -7 -96 -58 -203 -130 -276
-202 -201 -620 -185 -839 33 -89 90 -116 174 -93 290 l7 32 21 -20 c69 -64
171 -49 261 38 l40 39 22 -23 c13 -13 37 -35 55 -48z"/>
<path d="M3107 2034 c-4 -4 -7 -26 -7 -48 l0 -40 21 21 c19 19 20 23 7 47 -8
15 -17 24 -21 20z"/>
</g>
</svg>
